<svg width="200" height="53" viewBox="0 0 200 53" fill="none" xmlns="http://www.w3.org/2000/svg">
<path d="M0.835652 3.70604L0.780897 3.79175L0.867512 3.84505C2.2349 4.68652 3.26101 5.86913 3.94649 7.39592L12.5848 33.9508L12.6073 34.0199H12.6799H16.3599H16.4324L16.455 33.951L24.9999 7.84139L33.5449 33.951L33.5674 34.0199H33.6399H37.2399H37.3125L37.335 33.9509L47.735 2.03086L47.7777 1.89989H47.6399H44.0399H43.9674L43.9449 1.96878L35.3999 28.0784L26.855 1.96878L26.8324 1.89989H26.7599H23.1599H23.0874L23.0649 1.96878L14.5198 28.0788L7.89494 7.88871L7.89495 7.8887L7.89448 7.88733C6.76932 4.61902 5.07781 2.25107 2.814 0.795765L2.72964 0.741537L2.67565 0.826044L0.835652 3.70604ZM53.8055 4.34442L53.7537 4.422L53.8275 4.47901C54.9969 5.38265 55.8693 6.22298 56.4485 6.99967C57.0281 7.77686 57.3087 8.4828 57.3087 9.11988V25.1999C57.3087 28.0174 58.0537 30.2186 59.5564 31.789C61.0124 33.3106 63.1674 34.2273 66.0076 34.5505C63.9858 35.9964 62.9887 38.5715 62.9887 42.2399C62.9887 45.0347 63.8224 47.4052 65.4929 49.3451L65.493 49.3453C67.2192 51.3411 69.4337 52.3399 72.1287 52.3399C75.2963 52.3399 77.7526 51.3728 79.4824 49.4275C81.2641 47.5372 82.1487 44.8967 82.1487 41.5199V1.99989V1.89989H82.0487H78.6087H78.5087V1.99989V23.0352C78.2973 25.2936 77.1422 27.2145 75.0295 28.7993C72.9124 30.334 70.6129 31.0999 68.1287 31.0999C65.7458 31.0999 63.9766 30.4648 62.8016 29.2115C61.6255 27.957 61.0287 26.066 61.0287 23.5199V9.11988C61.0287 8.20073 60.8397 7.35995 60.4602 6.59932C59.7032 4.65608 58.1667 2.93601 55.8632 1.43608L55.7803 1.3821L55.7255 1.46441L53.8055 4.34442ZM76.855 46.8123L76.8549 46.8123L76.8521 46.8156C75.7548 48.1218 74.1855 48.7799 72.1287 48.7799C70.4526 48.7799 69.1223 48.1273 68.1283 46.8194L68.1271 46.8178C67.1297 45.558 66.6287 44.0074 66.6287 42.1599C66.6287 40.3066 66.9992 38.8634 67.7289 37.8196C68.5171 36.8221 69.7299 35.8976 71.3745 35.0488L71.3755 35.0482C74.8915 33.1837 77.1172 31.818 78.0361 30.9537C78.0365 30.9534 78.0368 30.953 78.0372 30.9527L78.5887 30.4626V41.7599C78.5887 43.8742 78.0077 45.5547 76.855 46.8123ZM108.778 5.45806L108.897 5.4811V5.35988V1.99989V1.9179L108.817 1.90183C107.215 1.58138 105.954 1.41988 105.037 1.41988C101.017 1.41988 97.9055 3.29405 95.709 7.02568C95.0039 4.61699 93.8417 2.80502 92.217 1.59957L92.149 1.54914L92.0881 1.60785L89.9281 3.68785L89.8547 3.75854L89.9267 3.83059C91.608 5.51189 92.4574 8.04197 92.4574 11.4399V33.9999V34.0999H92.5574H96.0774H96.1774V33.9999V11.1462C98.5125 7.01744 101.308 4.97988 104.557 4.97988C105.722 4.97988 107.129 5.1388 108.778 5.45806ZM138.232 3.01643L138.249 2.99087V2.95988V2.15988V2.05988H138.149H115.749H115.649V2.15988V5.43988V5.53988H115.749H131.96L113.187 33.1437L113.133 33.223L113.21 33.2802L116.01 35.3602L116.094 35.4226L116.152 35.3357L118.75 31.4785L124.995 33.5337C124.995 33.5339 124.996 33.5341 124.996 33.5343C127.462 34.4453 130.247 34.8999 133.349 34.8999C136.094 34.8999 138.569 33.9844 140.773 32.1569L140.838 32.1032L140.796 32.0303L139.196 29.2303L139.142 29.1351L139.052 29.198C136.927 30.6853 135.027 31.4199 133.349 31.4199C130.908 31.4199 128.412 30.9954 125.862 30.1454C125.862 30.1453 125.861 30.1451 125.861 30.145L120.865 28.3496L138.232 3.01643ZM172.301 28.1873L172.251 28.1064L172.167 28.1523C168.496 30.1739 165.18 31.1799 162.216 31.1799C159.087 31.1799 156.647 30.3451 154.884 28.687C153.14 27.0467 152.044 24.589 151.609 21.2999H159.016C163.134 21.2999 166.513 20.5244 169.146 18.9659L169.147 18.9656C171.848 17.3449 173.196 14.7495 173.196 11.1999C173.196 8.0801 172.091 5.67541 169.876 4.00058C167.669 2.2778 164.873 1.41988 161.496 1.41988C157.252 1.41988 153.863 3.0601 151.337 6.33853C148.814 9.55852 147.556 13.501 147.556 18.1599C147.556 23.6658 148.771 27.8139 151.221 30.5861C153.672 33.3606 157.343 34.7399 162.216 34.7399C166.609 34.7399 170.523 33.5072 173.954 31.0411L174.03 30.9867L173.981 30.9073L172.301 28.1873ZM167.194 6.39889L167.197 6.40126C168.659 7.44541 169.396 9.03848 169.396 11.1999C169.396 13.3819 168.537 15.0086 166.822 16.0954C165.099 17.1871 162.502 17.7399 159.016 17.7399H151.356C151.373 14.2801 152.274 11.2672 154.057 8.69723C155.906 6.0562 158.383 4.73988 161.496 4.73988C163.88 4.73988 165.777 5.29624 167.194 6.39889ZM199.091 5.45806L199.21 5.4811V5.35988V1.99989V1.9179L199.13 1.90183C197.527 1.58138 196.266 1.41988 195.35 1.41988C191.33 1.41988 188.218 3.29406 186.022 7.02569C185.316 4.617 184.154 2.80502 182.53 1.59957L182.462 1.54914L182.401 1.60785L180.241 3.68785L180.167 3.75854L180.239 3.83059C181.921 5.51189 182.77 8.04197 182.77 11.4399V33.9999V34.0999H182.87H186.39H186.49V33.9999V11.1462C188.825 7.01744 191.62 4.97988 194.87 4.97988C196.035 4.97988 197.441 5.1388 199.091 5.45806Z" fill="black" stroke="black" stroke-width="0.2"/>
</svg>
